<svg xmlns="http://www.w3.org/2000/svg" width="400" height="532.49">
  <path fill-rule="evenodd" d="M251.03 31.06c.66.43-.56.62-3.96.63-2.85 0-4.91.27-4.91.64 0 .35-.87.63-1.93.63-1.05 0-2.94.43-4.2.95-1.25.53-3.07.96-4.06.96-.98 0-1.96.28-2.18.63-.21.35-1.35.63-2.53.63-1.18 0-2.32.29-2.54.64-.21.35-1.51.63-2.89.63-1.37 0-2.5.29-2.5.63 0 .35-1.01.64-2.25.64-1.34 0-2.1.25-1.87.63.24.38-.52.64-1.86.64-1.24 0-2.26.28-2.26.63s-.83.63-1.84.63c-1.02 0-1.95.27-2.07.6-.11.33-.92.75-1.8.93-2.11.43-6.2 1.94-6.74 2.48-.24.24-.96.43-1.6.43-.64 0-1.16.29-1.16.64 0 .34-1.02.63-2.26.63-1.34 0-2.1.26-1.86.63.23.38-.52.64-1.86.64-1.25 0-2.26.28-2.26.63s-.87.63-1.94.63c-1.13 0-1.78.27-1.55.64.22.36-.3.63-1.23.63-.89 0-1.62.29-1.62.64 0 .35-.46.63-1.01.63-.56 0-1.91.47-3.01 1.04-3.67 1.91-4.2 2.13-5.16 2.13-.53 0-.96.29-.96.63 0 .35-.72.64-1.59.64-.87 0-1.58.28-1.58.63s-1 .64-2.22.64c-1.22 0-2.22.28-2.22.63s-.55.63-1.22.63c-.66 0-1.3.23-1.42.5-.12.28-1.92 1.32-4.02 2.32-2.09 1-5 2.64-6.45 3.63-1.46.99-2.95 1.8-3.33 1.8-.37 0-.68.22-.68.5 0 .27-.9 1.03-2.02 1.68-2.44 1.45-14.46 13.29-14.46 14.25 0 .37-.28.68-.63.68s-.63.43-.63.95-.3.95-.64.95c-.35 0-.63.3-.63.68 0 .37-.72 1.61-1.59 2.75-.87 1.14-1.58 2.41-1.58 2.81 0 .4-.29.73-.64.73-.34 0-.63.43-.63.96 0 .52-.29.95-.64.95-.34 0-.63.38-.63.85 0 .8-1.2 3.72-2.57 6.27-.33.6-.6 1.55-.6 2.1s-.28.82-.63.6c-.37-.23-.64.42-.64 1.55 0 1.07-.28 1.94-.63 1.94s-.63.84-.63 1.86c0 1.03-.29 2.04-.64 2.26-.35.22-.63.85-.63 1.4 0 1.4-2.03 5.89-2.66 5.89-.28 0-.51.87-.51 1.94 0 1.13-.26 1.78-.63 1.55-.38-.23-.64.41-.64 1.54 0 1.07-.28 1.94-.63 1.94s-.64.6-.64 1.32a3.18 3.18 0 0 1-3.12 3.12c-.72 0-1.31.29-1.31.63 0 .35-.57.64-1.27.64-.7 0-1.27.28-1.27.63s-.43.64-.95.64-.95.28-.95.63-.43.63-.95.63-.95.29-.95.64c0 .35-.29.63-.63.63-1.36 0-10.78 9.14-10.78 10.46 0 .45-.43.98-.95 1.18-.53.2-.96.95-.96 1.65 0 .71-.28 1.3-.63 1.3s-.63.85-.63 1.9c0 1.04-.29 1.9-.64 1.9-.38 0-.63 2.85-.63 7.28 0 4.44.25 7.3.63 7.3.35 0 .64 1.13.64 2.52 0 2.49-.24 2.93-3.97 7.32-.95 1.13-1.74 2.37-1.74 2.76 0 .39-.28.7-.63.7s-.64.58-.64 1.28c0 .7-.28 1.26-.63 1.26s-.63.84-.63 1.87c0 1.02-.29 2.04-.64 2.25-.35.22-.63 1.36-.63 2.53 0 1.18-.28 2.88-.62 3.77-.67 1.77.26 11.24 1.3 13.19a6 6 0 0 1 .59 2.38c0 .7.28 1.27.63 1.27s.63.57.63 1.27c0 .7.29 1.27.64 1.27.35 0 .63.3.63.67 0 1.52 7.02 9.47 8.37 9.47.28 0 .5.43.5.95s.3.95.64.95c.35 0 .63 1.7.63 3.8 0 2.12.29 3.8.64 3.8.35 0 .63 1 .63 2.23 0 1.22.29 2.22.64 2.22.34 0 .63.57.63 1.26 0 .7.27 1.27.6 1.27.32 0 .75.54.97 1.2.55 1.77 7.02 8.31 8.2 8.31.55 0 1 .28 1 .63s.34.64.74.64c2.9 0 5.6 2.2 5.6 4.56 0 1.32.3 2.41.64 2.41.35 0 .63.71.63 1.59 0 .87.29 1.58.64 1.58.35 0 .63.87.63 1.94 0 1.13.27 1.78.64 1.55.34-.22.63-.08.63.3 0 1.44 7.84 9.52 9.23 9.52.5 0 .91.29.91.64 0 .35.57.63 1.27.63.7 0 1.27.29 1.27.63 0 .35.85.64 1.9.64 1.04 0 1.9.28 1.9.63 0 .37 1.9.64 4.43.64 4.51 0 5.64.5 11.23 5.08.42.34 1.51.62 2.42.62.94 0 1.48.28 1.25.63-.24.4.95.64 3.14.64 1.94 0 3.52.29 3.52.63 0 .35 1.02.64 2.26.64 1.34 0 2.1-.26 1.86-.64-.21-.35-.09-.63.28-.63s.67.43.67.95-.28.95-.63.95-.63.86-.63 1.9c0 1.05-.3 1.9-.64 1.9-.35 0-.63.57-.63 1.27 0 .7-.29 1.27-.64 1.27-.35 0-.63.86-.63 1.9 0 1.05-.29 1.9-.63 1.9-.35 0-.64.68-.64 1.51s-.43 1.86-.95 2.3a2.99 2.99 0 0 0-.95 2.01c0 .68-.29 1.06-.63.84-.35-.22-.64.22-.64.96a3.18 3.18 0 0 1-3.12 3.16c-.72 0-1.32.28-1.32.63s-.7.64-1.58.64c-.87 0-1.59.28-1.59.63s-.7.64-1.58.64c-.87 0-1.59.28-1.59.63s-.83.63-1.84.63c-1.02 0-1.95.22-2.06.49-.3.68-6.81 3.95-7.88 3.95-.5 0-.9.29-.9.64 0 .34-.69.63-1.54.63-.85 0-1.72.28-1.94.63-.22.35-.95.64-1.62.64-.68 0-1.23.28-1.23.63s-.72.63-1.59.63c-.87 0-1.58.29-1.58.64 0 .35-.73.63-1.62.63-.92 0-1.46.28-1.23.64.22.35-.3.63-1.18.63-.86 0-1.67.21-1.78.48-.22.48-2.98 1.9-6.71 3.42-1.14.47-2.06 1.06-2.06 1.33 0 .26-.88.47-1.94.47-1.13 0-1.78.27-1.55.64.23.37-.43.63-1.58.63-1.16 0-1.82.27-1.59.64.22.36-.32.63-1.27.63-.94 0-1.49.27-1.26.63.22.36-.3.64-1.18.64-.86 0-1.67.21-1.78.47-.29.65-7 3.99-7.98 3.98-.44 0-.8.27-.8.62s-.7.63-1.58.63c-.87 0-1.58.29-1.58.64 0 .35-.73.63-1.62.63-.92 0-1.46.28-1.23.64.22.37-.42.63-1.55.63-1.07 0-1.94.28-1.94.63s-.28.64-.62.64c-.34 0-3.26 1.28-6.5 2.85-3.22 1.57-6.22 2.85-6.66 2.85-.44 0-.8.29-.8.64 0 .34-.57.63-1.27.63-.7 0-1.27.29-1.27.63 0 .35-.57.64-1.26.64-.7 0-1.27.28-1.27.63s-.4.64-.87.64c-.48 0-1.23.42-1.67.95-.43.52-1.32.95-1.98.95-.65 0-1.19.24-1.19.53 0 .3-1.23 1.17-2.74 1.95-1.5.77-3.57 2.13-4.6 3.01l-3.43 2.98c-.88.75-1.97 2.1-2.44 3.02-.47.9-1.54 2.39-2.38 3.3-.84.9-1.52 2.08-1.52 2.61 0 .54-.29.98-.64.98-.34 0-.63.57-.63 1.27 0 .7-.29 1.27-.63 1.27-.35 0-.64.55-.64 1.23 0 .67-.28 1.4-.63 1.62-.35.22-.64 1.03-.64 1.82 0 .78-.41 1.98-.93 2.66a5.32 5.32 0 0 0-.95 2.65c0 .79-.3 1.43-.65 1.43-.35 0-.64 1-.64 2.22 0 1.22-.28 2.21-.63 2.21s-.63 1-.63 2.22c0 1.22-.29 2.22-.64 2.22-.35 0-.63.98-.63 2.18 0 1.2-.29 2.36-.64 2.58-.34.21-.63.92-.63 1.57 0 .66-.43 1.62-.95 2.14s-.95 1.97-.95 3.22c0 1.24-.29 2.26-.63 2.26-.35 0-.64.86-.64 1.9 0 1.05-.28 1.9-.63 1.9s-.64 1-.64 2.23c0 1.22-.25 2.72-.55 3.33-.68 1.34-1.73 4.82-2.3 7.59-.22 1.13-.68 2.21-1 2.41-.32.2-.58 1.35-.58 2.55 0 1.2-.29 2.18-.64 2.18-.35 0-.63 1.14-.63 2.53 0 1.4-.29 2.54-.63 2.54-.35 0-.64.86-.64 1.9 0 1.06-.25 2.42-.56 3.02-.31.6-1.07 3.24-1.7 5.86-.61 2.61-1.4 4.93-1.73 5.16-3.14 2.08.64 22.5 4.55 24.6.6.31 2.5 1.74 4.22 3.15a32.38 32.38 0 0 0 5.34 3.62c5.26 2.46 13.9 7.98 16.9 10.8a73.48 73.48 0 0 0 6.65 5.46c19.46 13.69 29.6 21.03 30.52 22.12.6.71 1.1 1.11 1.1.9 0-.23 1.87 1.02 4.15 2.77a70.13 70.13 0 0 0 5.35 3.82c.8.43 53.15.59 158.22.48l157.02-.16.9-2.85c1.01-3.2.68-15.8-.44-16.48-.34-.22-.8-2.09-1.02-4.16-.21-2.07-.64-4.04-.95-4.37-.31-.33-.56-1.53-.56-2.66 0-1.13-.29-2.23-.64-2.44-.35-.22-.63-1.8-.63-3.53 0-1.72-.29-3.13-.63-3.13-.35 0-.64-1.14-.64-2.53 0-1.4-.28-2.54-.63-2.54s-.64-1.57-.64-3.49c0-1.91-.27-3.48-.6-3.48-.35 0-.81-1.44-1.04-3.19-.24-1.75-.67-3.33-.98-3.52-.3-.19-.55-1.16-.55-2.17 0-1-.28-2-.63-2.22-.35-.21-.63-1.53-.63-2.92 0-1.53-.26-2.38-.64-2.15-.39.24-.63-.84-.63-2.81 0-1.77-.29-3.21-.64-3.21-.35 0-.63-1.1-.63-2.46 0-1.4-.4-2.8-.95-3.25-.54-.44-.95-1.83-.95-3.2 0-1.34-.29-2.6-.64-2.82-.34-.21-.63-1.37-.63-2.57 0-1.2-.29-2.18-.63-2.18-.35 0-.64-1.44-.64-3.2 0-1.99-.24-3.06-.63-2.82-.39.24-.64-.75-.64-2.54s-.24-2.77-.63-2.53c-.38.23-.64-.58-.65-2.03-.01-1.33-.44-2.97-.95-3.64a5.75 5.75 0 0 1-.94-2.98c0-.96-.28-1.92-.63-2.13-.35-.22-.63-1.52-.63-2.9 0-1.37-.29-2.49-.64-2.49-.34 0-.63-1.59-.63-3.52 0-2.2-.24-3.38-.63-3.14-.39.24-.64-.64-.64-2.22 0-1.57-.25-2.45-.63-2.21-.37.22-.64-.4-.64-1.47 0-1.03-.42-2.22-.95-2.65a2.9 2.9 0 0 1-.95-1.95c0-.63-.28-1.32-.63-1.54-.35-.22-.64-.95-.64-1.62 0-.68-.28-1.23-.63-1.23s-.63-.43-.63-.95c0-.53-.29-.95-.64-.95a.65.65 0 0 1-.63-.67c0-.7-2.85-3.77-3.5-3.77-.22 0-.76-.36-1.21-.8-.45-.43-1.9-1.64-3.24-2.69a52.78 52.78 0 0 1-3.21-2.7c-.44-.43-1.1-.79-1.47-.79-.38 0-.68-.28-.68-.63s-.43-.63-.95-.63c-.53 0-.95-.29-.95-.64 0-.35-.4-.63-.9-.63s-1-.22-1.11-.49c-.12-.26-1.64-1.62-3.38-3a52.97 52.97 0 0 1-4.2-3.64c-.56-.61-1.43-1.11-1.92-1.11-.5 0-1.3-.57-1.8-1.27-.51-.7-1.29-1.27-1.73-1.27-.45 0-.82-.21-.83-.47 0-.26-1.29-1.33-2.85-2.38-1.56-1.05-2.84-2.12-2.84-2.38 0-.26-.5-.47-1.13-.47-.62 0-1.54-.57-2.04-1.27-.5-.7-1.28-1.27-1.72-1.27-.45 0-.81-.28-.81-.63s-.32-.64-.7-.64c-.79 0-10.92-6.97-11.24-7.74-.12-.27-.62-.5-1.11-.5-.5 0-.9-.28-.9-.63a.62.62 0 0 0-.6-.63c-.59 0-4.6-2.47-6.19-3.8a3.16 3.16 0 0 0-1.74-.64c-.54 0-.98-.29-.98-.64 0-.35-.43-.63-.95-.63s-.95-.25-.95-.56c0-.3-.57-.7-1.27-.9-1.03-.26-1.27-.86-1.27-3.2 0-1.58-.28-3.05-.63-3.26-1.56-.97-.65-2.86 1.38-2.86 1.11 0 2.9-.26 3.96-.59 1.07-.32 3.23-.92 4.8-1.33 1.57-.4 3.35-1 3.96-1.3.6-.32 1.61-.58 2.25-.58 1.42 0 4.56-1.42 4.56-2.06 0-.26.58-.48 1.28-.48.7 0 1.27-.28 1.27-.63s.32-.63.73-.63c.4 0 1.67-.72 2.8-1.59 1.15-.87 2.39-1.58 2.76-1.58.37 0 .68-.23.68-.5s.86-1 1.92-1.63a21.03 21.03 0 0 0 3.45-2.67c.85-.85 1.72-1.54 1.94-1.54.5 0 2.2-1.7 2.2-2.2 0-.66 3.06-3.5 3.77-3.5.37 0 .66-.44.66-.96s.29-.95.64-.95c.35 0 .63-.29.63-.64 0-.35.85-1.53 1.88-2.6 1.04-1.1 2.06-2.52 2.27-3.17.2-.66.64-1.2.97-1.2.32 0 .59-.42.59-.95 0-.52.28-.95.63-.95s.63-.57.63-1.27c0-.7.29-1.26.64-1.26.35 0 .63-.45.63-1s.36-1.4.8-1.88c2.02-2.26 2.37-2.86 2.37-4.1 0-.74.29-1.16.64-.95.36.23.63-.3.63-1.23 0-.89.29-1.62.63-1.62.35 0 .64-.57.64-1.27 0-.7.28-1.27.63-1.27s.64-.55.64-1.23c0-.67.28-1.4.63-1.62.35-.21.63-1.07.63-1.9 0-.82.43-1.92.96-2.44.52-.53.95-1.98.95-3.22 0-1.25.28-2.26.63-2.26s.63-1.3.63-2.9c0-1.76.25-2.73.64-2.5.4.25.63-1.35.63-4.36 0-2.61.29-4.93.63-5.14.4-.24.64-5.92.64-14.94 0-12.5.13-14.54.95-14.54.52 0 .95-.28.95-.63s.57-.64 1.27-.64c.7 0 1.27-.28 1.27-.63s.28-.63.63-.63c1.6 0 10.78-9.19 10.78-10.78 0-.35.28-.63.63-.63s.63-.58.63-1.27c0-.7.29-1.27.64-1.27.35 0 .63-.57.63-1.27 0-.7.29-1.27.64-1.27.34 0 .63-.84.63-1.86s.29-2.04.63-2.26c.35-.21.65-1.16.67-2.1.03-2.2 1.63-6.7 2.48-6.97.36-.13.66-.63.66-1.12 0-.5.28-.9.63-.9 2.01 0 .18-7.9-1.94-8.36-1.06-.23-3.13-4-3.13-5.7 0-.63-.29-1.15-.63-1.15-.35 0-.64-.84-.64-1.87 0-1.02.29-2.04.64-2.25.34-.22.63-.81.63-1.32s.71-2.06 1.58-3.44c.88-1.38 1.59-3.08 1.59-3.79 0-.7.28-1.28.63-1.28.38 0 .64-2.53.64-6.34 0-3.8-.26-6.34-.64-6.34-.35 0-.63-.59-.63-1.3 0-1.22-2.88-5.72-3.96-6.2-.26-.11-.48-.61-.48-1.1 0-.5-.21-.91-.47-.91-.76-.01-6.5-5.5-6.5-6.21 0-.36-.22-.75-.5-.86-.6-.26-3.3-4.02-4.41-6.14a8.52 8.52 0 0 1-.8-3.34c0-1-.28-1.83-.63-1.83-.38 0-.63-2.34-.63-5.74 0-3.67-.23-5.6-.64-5.35-.4.24-.63-.95-.63-3.14 0-1.93-.29-3.52-.63-3.52-.35 0-.64-.8-.64-1.78s-.42-2.34-.93-3.01a5.32 5.32 0 0 1-.95-2.66c-.01-.78-.3-1.42-.66-1.42-.34 0-.63-.72-.63-1.59 0-.87-.28-1.58-.63-1.58s-.64-.44-.64-.98-.64-1.68-1.42-2.53c-3.6-3.92-4.28-4.71-4.28-5.06 0-.46-3-3.48-3.45-3.48-.34 0-2.31-1.53-3.87-3.01-.46-.43-1.13-.8-1.5-.8-.37 0-2.23-.99-4.13-2.21-1.91-1.22-4.06-2.22-4.77-2.22s-1.3-.29-1.3-.63c0-.35-1-.64-2.22-.64-2.07 0-2.22-.13-2.22-2.03 0-2.44-1.98-9.38-2.67-9.38-.27 0-.5-.57-.5-1.27 0-.7-.28-1.26-.63-1.26s-.63-.43-.63-.95c0-.53-.29-.95-.64-.95-.35 0-.63-.4-.63-.9 0-.76-2.9-3.46-7.85-7.35a40.98 40.98 0 0 1-2.39-2.06c-.64-.6-1.6-1.1-2.12-1.1-.53 0-.95-.3-.95-.64 0-.35-.57-.63-1.27-.63-.7 0-1.27-.29-1.27-.64 0-.35-.57-.63-1.27-.63-.7 0-1.26-.29-1.26-.64 0-.34-.86-.63-1.9-.63-1.05 0-1.9-.28-1.9-.63s-.56-.64-1.24-.64c-.68 0-1.4-.28-1.62-.63-.22-.35-1.07-.63-1.9-.63-.83 0-1.67-.25-1.85-.55-.2-.3-1.5-.74-2.9-.96-1.4-.23-2.54-.7-2.54-1.04 0-.36-2.1-.63-4.92-.63-3.4-.01-4.62-.2-3.96-.63.63-.4-4.66-.61-15.53-.61s-16.16.2-15.53.61m27.58 10.82c34.38 4.65 49.88 23.26 33.66 40.42-7.97 8.42-17.89 9.6-46.03 5.46-29.16-4.29-52-.76-70.04 10.83-12.52 8.04-15.6 18.42-12.74 42.9 1.26 10.83 1.26 13.29 0 19.4-3.92 19.02-21.25 35.46-33.36 31.64-1.85-.58-6.78-1.35-10.96-1.7-12.4-1.05-15.85-2.13-19.8-6.18l-3.34-3.41-.67 1.76c-1.54 4.03.87 7.83 6.54 10.34 3.81 1.69 3.85 1.53-1.44 6.26l-4.45 3.99-3.25-.7c-4.24-.91-7.43-2.76-9.4-5.45-2.8-3.82-3.72-3-2.24 2 1.14 3.81 3.27 5.97 8.1 8.18 4.03 1.84 3.92 1.65 2.97 4.75-2.83 9.18-1.52 20.86 3.33 29.65 2.47 4.47 1.83 4.7-4.5 1.57-9.08-4.47-12.26-9.38-11-16.97.77-4.59.77-4.6-3.97-8.4-13.41-10.8-13.71-27.61-.66-37.46 4.08-3.09 4.39-4.39 2.02-8.54-6.18-10.8-1.62-23 10.85-29.04 6.54-3.17 8.98-4.96 10.62-7.79 1.48-2.54 2.31-4.6 7-17.16 12.27-32.83 24.35-43.44 67.81-59.53a1488.1 1488.1 0 0 0 14.58-5.46 189.8 189.8 0 0 1 48.5-11.62c5.32-.51 17.2-.37 21.87.26m-11.73 15.86c5.76 4.66 7.13 5.97 8.75 8.36 2.63 3.86 3.38 6.39 3.84 12.82.45 6.3 1.14 7.08 3.5 3.92 5.95-7.97-5.12-26.48-15.78-26.4l-1.9.02 1.59 1.28m26.62-1.02c0 .16.87 2.01 1.94 4.1 2.86 5.63 3.16 10.88.99 17.32-2.47 7.34-2.17 8.42 1.31 4.74 6.68-7.03 6.84-17.7.37-24.18-1.91-1.9-4.6-3.07-4.6-1.98m44.05 25.88c10.83 5.67 16.15 15.23 18.64 33.5 1.5 10.93 7.37 22.35 14.66 28.45 4.69 3.92 5.41 8.33 2.75 16.62-1.11 3.46-1.7 3.63-4.7 1.38-1.2-.9-3.51-2.31-5.12-3.14-3.28-1.69-3.73-2.42-3.73-6.21 0-7.63-4.03-25.02-7.73-33.39-6.86-15.52-15.15-25.92-25.46-31.94-4.7-2.75-4.74-2.83-2.84-6.02 2.63-4.43 3.76-4.37 13.53.75M322.6 94.4c11.13 8.47 17.96 18.78 23.56 35.53 2.44 7.3 3.27 10.67 4.17 16.98.47 3.24.8 3.2-4.95.48-5-2.38-16.87-5.38-21.31-5.39-9.94-.02-12.88 9.4-3.87 12.38 3.82 1.27 3.84 1.64.21 3.77a32.02 32.02 0 0 0-11.68 12.8c-3.26 7.01-3.57 7.5-4.5 7.25-3.03-.85-11.49-.17-14.84 1.2-4.07 1.65-4.04 1.67-6.04-3.49-3.4-8.7-8.92-14.54-18.24-19.27-2.74-1.4-3.05-2.6-.67-2.6 6.38 0 9.82-7.73 4.8-10.8-6.54-3.98-36.95 2.74-47.55 10.52-5.33 3.9-6.44 6.7-3.88 9.74l1.64 1.95-2.93 3.26c-3 3.33-6.86 10.6-7.64 14.37-.56 2.7-.93 2.83-13.95 4.83-18.64 2.87-18.85 2.79-13.4-5.2 8.86-13.03 11.38-23.16 9.7-39.06-2.81-26.72-2.08-31.05 6.25-36.95 18.53-13.1 41.76-16.5 74.47-10.88 13.75 2.37 29.63 1.23 39.42-2.83 2.9-1.2 5.5-2.22 5.78-2.26.29-.05 2.73 1.6 5.45 3.67m-22.44 29.9c-1.4.28-9.1.5-17.12.46-14.12-.06-18.3.2-23.3 1.47-4.4 1.11-2.42 1.62 8.56 2.18 32.74 1.66 59.32-.68 46.9-4.14-2.75-.76-11.38-.75-15.04.02m-171.8 18.4c-7.45 3.22-8.71 3.9-9.03 4.85-.89 2.69 10.08-1.07 14.52-4.97 3.63-3.19 2.1-3.15-5.48.13m42.08 5.9c-4.52 3.46-12.86 8.01-18.8 10.24-8.17 3.07-8.84 5.72-1.3 5.12 5.36-.42 12.25-3.98 17.71-9.13 6.65-6.27 8.4-10.85 2.39-6.24m92.1 13.86c29.96 13.94 17.27 59.47-16.57 59.41-27.28-.04-41.5-30.55-23.44-50.3 9.8-10.72 27.75-14.8 40-9.1m83.38-.53c6.05 2.72 6.13 2.88 5.54 10.94-.27 3.76-.51 15.64-.54 26.38-.06 22.62.6 20.77-7.27 20.82-7.4.05-16.18-2.9-19.49-6.54-3.71-4.08-12.9-23.81-12.9-27.7 0-18.52 18.4-31.22 34.67-23.9m18.8 5.83c4.8 3.75 4.47 6.14-1.72 12.19-3.78 3.7-4.45 3.17-3.91-3 .45-5.13.88-10.23.93-11.02.07-1.06 1.89-.35 4.7 1.83M323.3 177c-4.96 3.36-6.86 11.61-4.23 18.4 3.08 8 12.38 7.26 15.27-1.23 3.7-10.88-3.59-22.22-11.04-17.17m-73.54.38c-7.16 3.94-7.84 20.12-1.02 24.27 6.88 4.2 13.68-2.21 13.7-12.92 0-9.71-5.95-15.04-12.68-11.35m-89.44 5.78a85.34 85.34 0 0 1-6.92 3.13c-3.04 1.06-1.77 1.72 1.43.75 5.27-1.6 7.79-2.65 9.25-3.86 2.9-2.37.99-2.39-3.76-.02m213.21-1.06c.52 1.4-.22 2.38-1.8 2.38-1.8 0-1.9-.44-.48-2.01 1.24-1.36 1.88-1.46 2.28-.37m-70.78 5.55c1.1 5.25 2.45 8.79 7.93 20.74 6.94 15.13 6.4 17.87-5.07 25.46-8.6 5.69-.87 9.2 9 4.1 4.54-2.35 10.59-9.62 10.59-12.73 0-2.22 1.49-2.39 6.53-.72 3.73 1.23 5.95 1.5 12.17 1.54l7.6.05.2 5.98c1.25 37.97-15.7 70.98-42.62 83-24.6 10.98-84.44 3.01-121.12-16.13-16.17-8.43-15.53-7.74-14.79-16.07.54-6.02.12-11.23-1.67-20.74-2.1-11.1-2.03-11.03-8.97-9.13-20.62 5.66-41.7-9.28-41.7-29.53 0-22.13 19.65-29.99 37.33-14.93 9.95 8.48 20.6 3.67 20.6-9.29 0-2.13 1-2.44 14.72-4.58 14.82-2.32 14.13-2.4 14.68 1.68 5.99 44.11 72.9 40.76 77.48-3.88.61-5.95 4.77-8.75 12.6-8.45l3.77.14.74 3.49m71.8 4.28c2.09 3.96-4.58 16.66-11.1 21.14-3.73 2.57-3.83 2.41-4.7-7.78-.84-9.7-.6-11.76 1.48-12.26 1.08-.26 10.02-1.7 13.28-2.15.25-.03.72.44 1.04 1.05m-201.22 6.43c.73 1.18-.81 6.7-2.19 7.81-2.53 2.05-4.9 1.47-8.42-2.06-3.8-3.8-3.65-4.06 3.05-5.26 6.31-1.15 7.13-1.2 7.56-.5m75.11 49.7c-4.5 3.04-6.09 8.05-2.69 8.57 1.35.2 7.82-6.1 7.82-7.63 0-2.51-2.2-2.92-5.13-.95m-123.14 6.03c6.9 6.8 11.94 9.62 17.21 9.64 3.07.01 4.45.94 4.1 2.74-.52 2.71 8.63 8.05 13.8 8.05 2.4 0 .93 1.57-1.66 1.79-6.24.51-11.5-2.08-13.75-6.78-.8-1.65-.89-1.67-7.79-1.72-6.46-.04-7.24-.18-10.35-1.88-5.83-3.16-10.97-13.23-8.2-16.01 1.17-1.16 1.28-1.1 6.64 4.18m131.8-.14c-1.98 1.97-.85 3.97 3.71 6.58 13.24 7.58 37.57 9.62 48.62 4.1 5.33-2.68 4.37-5.34-1.48-4.1-14.36 3.05-32.45.87-45.07-5.43-5.04-2.5-4.53-2.4-5.78-1.15m-80.4 47.87c6.67 4.02 24.54 13.1 37.63 19.13 5.61 2.58 5.1 1.28 6.58 16.93.57 6 .7 10.04.34 10.4-.5.5-13.04-5.46-20.93-9.96-4.13-2.36-10.76-6.12-15.06-8.54-11.76-6.61-23.61-14.75-23.6-16.19 0-.79 4.7-13.15 5.74-15.1.91-1.69 1.13-1.6 9.3 3.33m55.68 26.79c8 3.87 23.5 10.62 27.05 11.78 2.88.94 2.9 1.32.44 5.17-2.99 4.65-2.74 4.57-14.1 4.81-6.6.15-11.18.54-12.8 1.11-3.17 1.1-3.84.6-4.35-3.29-.22-1.65-.67-4.86-1-7.12-2.43-16.8-2.7-16.07 4.76-12.46m51.09 5.26c1.38 1.25 1.54 9.55.3 15.44-.86 4.12-.75 4.11-14.83 1.5-2.16-.4-1.86-1.06 3.87-8.37a188.5 188.5 0 0 0 6.17-8.19c1.04-1.68 2.87-1.84 4.49-.38M89.33 358.47c15.04 3.9 33.72 19.12 49.99 40.73l3.59 4.77 5.4-.48c2.98-.27 6.84-.57 8.58-.68a97035.05 97035.05 0 0 1 23.14-1.47c4.01-.26 16.28-.45 27.26-.43l19.97.04.2 1.66c.4 3.57.15 3.61-22.79 3.7-11.56.04-21.22.19-21.45.34-.24.14-4.4.43-9.26.63-4.85.2-12.53.79-17.07 1.3-4.53.52-10.38 1.01-12.99 1.1l-4.75.15-5.24-6.98c-15.2-20.23-31.81-34.5-48.37-41.57-3.44-1.47-6.11-2.91-5.93-3.21.53-.85 5.74-.64 9.72.4m173.74-.32c18.89 1.02 20.75 1.94 26.17 12.87 6.9 13.94 18.69 48.15 23.84 69.23.68 2.8 2 7.93 2.92 11.41 12.56 47.39 12.63 48.23 3.95 48.87a42.13 42.13 0 0 0-9.28 2.18c-8.98 3.28-16.53 2.53-16.53-1.63 0-2.75-2.46-3.67-9.72-3.63-6.52.04-6.94.13-20.4 4.44-4.1 1.32-18.85 1.49-23.57.27-6.2-1.59-5.55 8.03-4.98-74.59.13-19.52-.03-42.34-.36-50.7-.33-8.38-.45-15.86-.26-16.63.67-2.74 7.16-3.22 28.22-2.09m-.97 43.12c.72 20.64 1.7 42.84 2.03 45.64.3 2.68.6 10.63 1 26.94.1 3.84.5 7.53.9 8.2 1.45 2.49-.37-64.44-2.29-83.88-1.04-10.55-2.05-8.65-1.64 3.1m87.19 4.36v11.34l-1.53.3c-.85.15-2.45-.1-3.56-.57a13.74 13.74 0 0 0-4.46-.85c-1.33 0-2.6-.29-2.81-.64-.22-.34-2.07-.63-4.13-.63-2.05 0-3.9-.28-4.12-.63-.21-.35-1.07-.64-1.9-.64-.83 0-1.68-.28-1.9-.63-.21-.35-1.36-.64-2.53-.64-1.18 0-2.33-.28-2.54-.63-.22-.35-1.41-.63-2.66-.63-2.54 0-4.69-1.88-4.21-3.68.3-1.18 4.92-1.23 5.64-.06.2.31 1.5.57 2.9.57s3.05.27 3.68.6c1.33.72 7.22 1.9 11.77 2.36 1.74.18 3.44.58 3.77.9 1.11 1.06 2.88.64 2.88-.7 0-.7.25-1.26.56-1.26.31 0 .68-3.07.81-6.82.27-7.56.55-8.4 2.79-8.4h1.55v11.34m-61.5 17.78c0 1.64.44 5.27 1.62 13.67l1.25 8.88c.85 6.05 2.95 19.22 4.14 25.99.3 1.74.84 5.3 1.19 7.92.89 6.7 1.97 12.17 2.67 13.47.88 1.65 4.1 1.45 5.23-.31.94-1.47.94-1.5-.91-11.73-.33-1.83-.86-4.88-1.18-6.78-.31-1.9-.73-3.7-.92-4.01-.2-.32-.79-2.83-1.33-5.59-.53-2.76-1.29-6.58-1.67-8.5a409 409 0 0 0-6.28-24.72c-.62-1.92-1.5-4.99-1.95-6.82-.9-3.64-1.85-4.4-1.85-1.47"/>
</svg>
